<svg version="1.0" xmlns="http://www.w3.org/2000/svg" viewBox="0 0 1000 1000"><path d="M0 57.9v57.8l5.2 8.9c10 17.3 22.5 44.6 42.7 93 22 53.1 34.4 75.8 48.8 89.9 8.2 8 12.9 10 23.4 10 8.2 0 9.1-.2 17.1-4.3 23.3-11.8 46.8-39.7 95.3-113.2 11.1-16.8 29.4-44.5 40.7-61.5 39.3-59.3 51.5-82.3 56.3-106.4 1.8-8.5 1.8-28.2.1-30.9C329.1.3 291.4 0 164.4 0H0v57.9zM618.3.7c.3.5 3.7 7.5 7.7 15.8 22.6 46.6 44.2 81.7 60 97.5 8.3 8.3 14.7 12 21.1 12 5.6 0 9.7-2.8 14.6-9.7 9.4-13.3 17.4-38.5 31.8-98.8 1.9-8.3 3.7-15.6 4-16.3.3-.9-14-1.2-69.6-1.2-38.5 0-69.8.3-69.6.7zM899 .7c0 .4 13.4 14.2 29.8 30.7 37.6 37.9 48.6 51.2 65 77.8l6.2 10.2V0h-50.5c-27.8 0-50.5.3-50.5.7zm-488 131c-31.1 3.4-61.8 20.8-102.8 58.1-36.1 32.9-69.1 86-80.9 130.2-2.4 9.1-2.8 12.3-2.8 24.5 0 16.1 1.2 20.1 8.1 26.8 6.5 6.3 12.7 8.1 27.9 8.1 25 0 55.1-8.1 113.5-30.7 41.1-15.8 59.7-27.7 72.3-46.2 18.6-27.2 25.2-82.9 14.7-124.1-7.9-30.7-21.3-44.9-44-46.7-1.9-.1-4.6-.1-6 0zm440.6 50.4c-6.4 1.5-19.5 8.2-28.6 14.4-9.1 6.3-15.3 11.3-39.9 32.5-23.9 20.7-35.3 28.1-50 32.5-16.4 4.9-31.9 5.7-76.6 3.9-58.8-2.2-84.3-.3-101.3 7.6-9.6 4.5-12.4 7-16.5 14.8-3.4 6.3-3.7 7.7-3.7 14.9 0 21.5 13.4 48.1 35.3 70.5 13.3 13.5 27.9 23.6 60.2 41.8 34.6 19.4 43.3 26.7 61.9 51.4 12.8 17 15.4 19.8 21 22.1 7.7 3.2 13.6 1.1 37.5-13.4 23.5-14.2 32-17.4 46.9-17.3 10.7 0 18.3 1.4 42.2 7.2 36 8.9 52.6 11.1 81.5 11.1 29.9-.1 54.2-4.2 72.8-12.4l5.7-2.6V304.4l-8.2-9.4c-4.5-5.2-19.3-20.5-32.9-34-13.6-13.5-31.9-32.3-40.9-41.8-8.9-9.4-19.8-20.1-24.3-23.7-14.1-11.3-30.1-16.4-42.1-13.4zM0 382.8c0 62.4.3 78.2 1.3 77.6 24.2-14.2 34.2-33.6 34-65.9-.1-25.6-8.9-52-25.2-76-3.3-5-6.9-10.1-8.1-11.5l-2-2.5v78.3zM210.5 512c-25.4 3.4-41.7 15.2-47.9 34.5-2.2 6.8-3.4 24-2.5 34.5 3.6 40.9 31.9 103.9 65.8 146.5 49 61.6 111.6 103.1 142.3 94.1 23-6.7 31.7-36.6 28.6-99-1.3-26.3-6.3-72.9-10.3-96.1-6.4-36.8-17.6-58.4-39.1-75.6-21.3-16.9-60-32.3-94.2-37.5-12.5-1.9-33.8-2.5-42.7-1.4zm537 10.7c-72.9 6-130.3 39.9-170.9 100.8-20.3 30.4-34.7 68-39.2 101.8-2.2 16.7-1.5 47.4 1.5 64.2 4.7 26.1 13.5 54.9 28.7 93.2 12.2 30.6 31.8 76.3 47.5 110l3.3 7.3h139.3l1.5-6.8c8.7-38.5 25.9-94.6 39-127.6 13.9-34.8 32.6-70.5 68.7-130.5 25.3-42.1 29.8-49.9 38.3-66.6 8-15.7 14.1-30.7 16.9-41.2 2.9-11.2 3.6-28 1.5-36.3-8.8-34.2-55.8-60.6-120.6-67.5-12-1.3-44.1-1.8-55.5-.8zm-715 262.2c-10 1.8-27.4 6.4-30.7 8.2C.1 794 0 799.2 0 897v103h328.9l-1.8-5.3c-4.6-13.3-13.4-26.1-27.5-40.2-11.2-11.2-23.5-21.3-52.6-43.6-34.8-26.6-41.8-32.5-75.7-64.5-29.8-28.1-46.1-40.9-63.3-49.8-24.5-12.6-48.8-16.4-75.5-11.7zm958.5 15c-61.1 26.4-110 92.9-110 149.3 0 16.2 4.3 30.9 13.1 44.1l4.3 6.7H1000V898.5c0-80.6-.3-101.5-1.2-101.5-.7.1-4.2 1.3-7.8 2.9z" fill="#FFF"/><path d="M93.5 520c-.3.5-.1 1 .4 1 .6 0 1.1-.5 1.1-1 0-.6-.2-1-.4-1-.3 0-.8.4-1.1 1z" fill="#FFF" fill-opacity=".01"/><path d="M719.9 120.7c-1.3 1.6-1.2 1.7.4.4.9-.7 1.7-1.5 1.7-1.7 0-.8-.8-.3-2.1 1.3zM35.5 412c.3.5.8 1 1.1 1 .2 0 .4-.5.4-1 0-.6-.5-1-1.1-1-.5 0-.7.4-.4 1zM554 501c0 1.1.4 2 .9 2s.7-.9.4-2c-.3-1.1-.7-2-.9-2-.2 0-.4.9-.4 2zm-452.4 18.3c.3 1 .9 1.5 1.2 1.2.3-.3 0-1.1-.7-1.8-1-.9-1.1-.8-.5.6zm14.4-.4c0 .5.5 1.3 1 1.6.6.3 1 .2 1-.4 0-.5-.4-1.3-1-1.6-.5-.3-1-.2-1 .4zm-7.5 1.1c-.3.5-.1 1 .4 1 .6 0 1.1-.5 1.1-1 0-.6-.2-1-.4-1-.3 0-.8.4-1.1 1zM81 521.1c0 .5.5.7 1 .4.6-.3 1-.8 1-1.1 0-.2-.4-.4-1-.4-.5 0-1 .5-1 1.1zm-2.7 2.4c0 .8.4 1.5.9 1.5.4 0 .8-.4.8-.9 0-.6-.4-1.2-.8-1.5-.5-.3-.9.1-.9.9zm5.2-.5c-.3.5-.1 1 .4 1 .6 0 1.1-.5 1.1-1 0-.6-.2-1-.4-1-.3 0-.8.4-1.1 1zm66.5-.1c0 .6.4 1.2.8 1.5.5.3.9-.1.9-.9s-.4-1.5-.9-1.5c-.4 0-.8.4-.8.9zm19.3 4.6c0 .8.4 1.5.9 1.5.4 0 .8-.4.8-.9 0-.6-.4-1.2-.8-1.5-.5-.3-.9.1-.9.9zM28 545.9c0 .6.4 1.2.8 1.5.5.3.9-.1.9-.9s-.4-1.5-.9-1.5c-.4 0-.8.4-.8.9zm-3 4.1c-.9.6-1 1-.3 1 .6 0 1.5-.5 1.8-1 .8-1.2.4-1.2-1.5 0zm-6 1.9c0 .5.5 1.3 1 1.6.6.3 1 .2 1-.4 0-.5-.4-1.3-1-1.6-.5-.3-1-.2-1 .4zm387 3c0 .5.5 1.3 1 1.6.6.3 1 .2 1-.4 0-.5-.4-1.3-1-1.6-.5-.3-1-.2-1 .4zm7 .1c0 .5.5 1 1 1 .6 0 1-.5 1-1 0-.6-.4-1-1-1-.5 0-1 .4-1 1zm-14 1c0 .5.5 1 1 1 .6 0 1-.5 1-1 0-.6-.4-1-1-1-.5 0-1 .4-1 1zm-37 .9c0 .5.5 1.3 1 1.6.6.3 1 .2 1-.4 0-.5-.4-1.3-1-1.6-.5-.3-1-.2-1 .4zm-356 3c0 .6.4 1.2.8 1.5.5.3.9-.1.9-.9s-.4-1.5-.9-1.5c-.4 0-.8.4-.8.9zM1 563c0 .6.7 1 1.5 1 1.9 0 1.9-.6 0-1.4-.8-.3-1.5-.1-1.5.4zm996 2.9c0 .5.5 1.3 1 1.6.6.3 1 .2 1-.4 0-.5-.4-1.3-1-1.6-.5-.3-1-.2-1 .4zm-8.9 6c-.1 2 .1 2.1 1.4 1.1 1.6-1.4 2.1-2.5.6-1.6-.5.4-1.2 0-1.4-.6-.3-.7-.6-.2-.6 1.1zm-15.8 7.6c0 .8.4 1.5.9 1.5.4 0 .8-.4.8-.9 0-.6-.4-1.2-.8-1.5-.5-.3-.9.1-.9.9zM398.6 762.7c-.6 1.4-.5 1.5.5.6.7-.7 1-1.5.7-1.8-.3-.3-.9.2-1.2 1.2zm489 143c-.6 1.4-.5 1.5.5.6.7-.7 1-1.5.7-1.8-.3-.3-.9.2-1.2 1.2z" fill="none"/><path d="M57.5 530c-.3.5-.1 1 .4 1 .6 0 1.1-.5 1.1-1 0-.6-.2-1-.4-1-.3 0-.8.4-1.1 1zm901 54c-.3.5-.1 1 .4 1 .6 0 1.1-.5 1.1-1 0-.6-.2-1-.4-1-.3 0-.8.4-1.1 1zm-893-56.9c-.4.6-.5 1.2-.2 1.5.2.3.7-.2 1-1.1.7-1.7.1-2-.8-.4z" fill="#FFF" fill-opacity=".02"/><path d="M741.1 71.6c0 1.1.3 1.4.6.6.3-.7.2-1.6-.1-1.9-.3-.4-.6.2-.5 1.3zM555.6 500.3c.3 1 .9 1.5 1.2 1.2.3-.3 0-1.1-.7-1.8-1-.9-1.1-.8-.5.6zm-11.6 8.8c0 .5.5.7 1 .4.6-.3 1-.8 1-1.1 0-.2-.4-.4-1-.4-.5 0-1 .5-1 1.1zm-319.2.6c.7.3 1.6.2 1.9-.1.4-.3-.2-.6-1.3-.5-1.1 0-1.4.3-.6.6zm5 0c.7.3 1.6.2 1.9-.1.4-.3-.2-.6-1.3-.5-1.1 0-1.4.3-.6.6zM151.5 524c.3.5.8 1 1.1 1 .2 0 .4-.5.4-1 0-.6-.5-1-1.1-1-.5 0-.7.4-.4 1zM37.1 540.6c0 1.1.3 1.4.6.6.3-.7.2-1.6-.1-1.9-.3-.4-.6.2-.5 1.3zM15 554.1c0 .5.5.7 1 .4.6-.3 1-.8 1-1.1 0-.2-.4-.4-1-.4-.5 0-1 .5-1 1.1z" fill="#FFF" fill-opacity=".01"/><path d="M908 11.4c0 .2.8 1 1.8 1.7 1.5 1.3 1.6 1.2.3-.4s-2.1-2.1-2.1-1.3z" fill="#FFF" fill-opacity=".38"/><path d="M927 30.4c0 .2.8 1 1.8 1.7 1.5 1.3 1.6 1.2.3-.4s-2.1-2.1-2.1-1.3z" fill="#FFF" fill-opacity=".25"/><path d="M930 33.4c0 .2.8 1 1.8 1.7 1.5 1.3 1.6 1.2.3-.4s-2.1-2.1-2.1-1.3z" fill="#FFF" fill-opacity=".26"/></svg>