<svg id="Слой_1" data-name="Слой 1" xmlns="http://www.w3.org/2000/svg" viewBox="0 0 900 900"><defs><style>.cls-1,.cls-3{fill:none;}.cls-1{stroke:#fff;stroke-linecap:round;stroke-linejoin:round;stroke-width:7px;}.cls-2,.cls-4{fill:#fff;}.cls-4{opacity:0.85;}</style></defs><title>fin</title><path class="cls-1" d="M72.75,221.91a15.84,15.84,0,0,0,9.28.74c4.06-.82,9.55-3.11,15.64-6.86a103,103,0,0,0,18-14.21c5.24-5.25,9-10.56,9.5-15.26s-2.33-8.8-6.33-13a78.41,78.41,0,0,0-15.3-12.13c-6.13-3.77-13.22-7.12-19.1-8.56s-10.57-.95-14.46,2.49-7,9.83-9.07,15.93a61.89,61.89,0,0,0-3.5,18.17,61.25,61.25,0,0,0,1.8,18,21.46,21.46,0,0,0,6,10.33,20.84,20.84,0,0,0,7.5,4.25h0Z"/><path class="cls-1" d="M85.84,144.12c1.2-1.77,2.51-3.67,4-5.77,3.87-5.47,8.95-12.3,14.39-18.94s11.25-13.07,18.07-20.22,14.64-15,21.67-21.11a196,196,0,0,1,21.09-15.63c7.81-5.2,17.19-11.29,25.09-15.84s14.34-7.56,20.77-10.56"/><path class="cls-1" d="M127.33,174.47c4.09-5,8-9.84,11.39-13.78,4.4-5.18,7.78-8.84,11.54-12.63s7.88-7.68,12.71-12.29,10.36-10,15.87-14.51a122.69,122.69,0,0,1,16.58-11.62,82.9,82.9,0,0,1,16.28-7.55,59.88,59.88,0,0,1,13.53-2.29"/><path class="cls-1" d="M225.22,99.79a161.37,161.37,0,0,0-1,21.4,119.65,119.65,0,0,0,3.3,24.49c1.89,7.28,4.51,12.61,9.51,16.71s12.4,7,20.47,7.39a45.79,45.79,0,0,0,23.41-5.21A33.79,33.79,0,0,0,294.38,151a25.13,25.13,0,0,0,2.92-14.64A73.43,73.43,0,0,0,293,117a106.71,106.71,0,0,0-9.73-19.8c-3.75-6-7.73-11.13-10.06-17.16s-3-13-4.27-19.61A69.69,69.69,0,0,0,263,42.13c-2.71-5.3-6.23-9.54-10.48-12.13s-9.22-3.54-16.28-2.26-16.19,4.8-25.33,8.32"/><path class="cls-1" d="M208.46,103.21a102.39,102.39,0,0,0-6.77,12.72,57.26,57.26,0,0,0-3.57,13,50.9,50.9,0,0,0-.59,11.92,26.86,26.86,0,0,0,2.62,10,14.6,14.6,0,0,0,7,6.91,22.24,22.24,0,0,0,12.15,1.7c4.16-.64,7.87-2.66,11.58-4.68"/><path class="cls-1" d="M85.84,144.12L82.62,146c-0.87.51-1.44,0.83-2.1,1.24a8.93,8.93,0,0,0-1.88,1.38,2,2,0,0,0-.52,1.53,9.35,9.35,0,0,0,.34,1.79"/><path class="cls-1" d="M127.33,174.47c0,1.21-.05,2.41,0,3.27a5.18,5.18,0,0,1,.06,1.78,1.74,1.74,0,0,1-1.22.86,9.38,9.38,0,0,1-2,.23"/><path class="cls-1" d="M85.84,144.12c2.7,0.7,5.4,1.39,7.78,2.27a41.46,41.46,0,0,1,6.49,3.13c2.07,1.18,4.14,2.49,6.27,3.82s4.32,2.65,6.23,4.11a55.34,55.34,0,0,1,5.31,4.77,55.83,55.83,0,0,1,5.15,5.62,63,63,0,0,1,4.24,6.61"/><path class="cls-1" d="M71.6,221.29c0.43-1,.86-2,1.16-2.87a5.22,5.22,0,0,0,.38-2.24,1.47,1.47,0,0,0-.94-1.33,3.23,3.23,0,0,0-2,.26,5.33,5.33,0,0,0-1.83,1.28,22.75,22.75,0,0,0-1.73,2.15"/><path class="cls-2" d="M398.53,618.86q-10.49,5.9-15.43,22-4.85,16.29,2.33,32.65a213.25,213.25,0,0,0,13.81,27.28,24.74,24.74,0,0,1,2.14,22.44q-4.46,11.83-23.6,38.79Q366.91,777.31,366,778.9a11.26,11.26,0,0,0-1.35,7.67q-8.47,4.15-8.68,29.55,0,25.32,7.6,35.59,7.78,10.63,14.72,8.12,4.54,5.94,14.22,4,9.5-1.81,22.38-8.87,13.14-7,20.49-15.11,9.07-9.88,7.08-15.87a55.71,55.71,0,0,0,12.72-12.77q4.15-5.69,10.64-18.51a368.73,368.73,0,0,0,22.73-55.67q17.69,3.17,39.19-5.74t27.81-23.59q6.06-14.78-.1-30.74t-27.64-25.07a126.94,126.94,0,0,0-45.11-9.67q-4,.06-7.68-0.16a107.35,107.35,0,0,0-9.72-8.71q-14.18-11-21-13.71-27.82-10.83-45.72-.82M361.28,832.34q-2.27-9.08-.89-21.81,1.14-10.58,5.31-14,8.37-6.57,33-1-3.9-3.76-17.22-7.45-9.92-2.83-8-6.24,3.3-6.17,19.32-30.47,16.05-24,17.66-31.57,1.64-7.26-1.48-12.65-23-31.61-20.41-52.8,2.51-22.12,15.58-31.19,13.09-8.76,38.32,1.07,4.92,1.92,14.19,9.85,9.07,7.7,9.92,13.55,27.11-1.51,41.64,2.51,20,5.57,28.87,13.48a43.61,43.61,0,0,1,12.65,18.78q3.68,10.82.54,20a36.3,36.3,0,0,1-9.94,15.2Q533.8,723.4,521,728.7q-13,5.51-38.2,1.66-12.58,37.27-18.17,49.7a232.11,232.11,0,0,1-11.52,23.08q-6,10.34-10.3,12.68-4.41,2.15-9.11-1.47,5.77,11.19.28,19.18-5.6,8.25-25.74,19-20.06,11-28.51.52-8.37-10.26-5.46,1-9.55-6.85-13-21.75h0Z"/><rect class="cls-3" x="604.68" y="398.99" width="250" height="144.64" transform="translate(-5.81 933.5) rotate(-65)"/><path class="cls-2" d="M735.66,539.17a11.37,11.37,0,0,1,.81,13.88c-20.22,29.57-40.22,40.59-59.61,31.55s-23.8-31.44-14.16-65.94a11.37,11.37,0,0,1,11.15-8.3L713.19,426c-19.13-8.92-25.67-34.58-15.12-57.2s34.41-34.11,53.54-25.19c13.5,6.29,20.95,21.13,20.09,37.6,12.06-11.24,28.21-15.08,41.71-8.79,19.13,8.92,25.67,34.58,15.12,57.2S794.12,463.74,775,454.82Zm-28.38-19.8a101.5,101.5,0,0,1,22.52,14.44l40-85.86a3.79,3.79,0,0,1,5.48-1.59,24.47,24.47,0,0,0,2.88,1.59c15,7,34.57-2.43,43.47-21.53s3.54-40.14-11.46-47.13c-12.19-5.68-27.72-.58-38,12.5a3.79,3.79,0,0,1-4.58,1.1l-2.33-1.08a3.78,3.78,0,0,1-2.1-4.22c3.44-16.25-2.64-31.43-14.83-37.11-15-7-34.57,2.43-43.47,21.53s-3.54,40.14,11.46,47.14a24.47,24.47,0,0,0,3.07,1.19,3.79,3.79,0,0,1,2.31,5.22l-40,85.86a101.51,101.51,0,0,1,25.54,8h0Zm-30.53,56.51L683,562.4a3.79,3.79,0,0,1,6.87,3.2l-6.29,13.48c14.2,4.2,29.64-5.51,46.6-30.31a3.79,3.79,0,0,0-.51-4.88A93.57,93.57,0,0,0,674.07,518a3.79,3.79,0,0,0-4.07,2.74c-8.09,28.94-5.6,47,6.75,55.18h0Z"/><rect class="cls-3" x="45.86" y="648.23" width="250" height="129.86" transform="translate(-533.45 508.85) rotate(-60.35)"/><path class="cls-2" d="M112.37,815.85a41.61,41.61,0,0,0,16.49,17.24c0.26,0.15.54,0.26,0.81,0.41l0.08,0.05,0.17,0.07a41.61,41.61,0,0,0,31.65,3.15A41.15,41.15,0,0,0,189,785.14a38.5,38.5,0,0,0-12.25-19.23l52.39-92a22.15,22.15,0,0,0,6.32-1.6A4.24,4.24,0,0,0,236,672c0.5-.23,1-0.48,1.46-0.75a18.59,18.59,0,0,0,9.06-14.66c1.39-15.72,1.44-43.4-13.86-52.11s-39.07,5.46-51.88,14.68a18.58,18.58,0,0,0-8,15.27q0,0.82.1,1.65a3.79,3.79,0,0,0,.07.56,22.26,22.26,0,0,0,1.86,6.27l-52.37,92a38.4,38.4,0,0,0-25.08-.05,41.14,41.14,0,0,0-27.47,51.63,41.64,41.64,0,0,0,42.43,29.32h0Zm73-190.29c6.43-4.63,26.84-18.31,39.74-15.61l-3.55,6.23a3.91,3.91,0,0,0,6.79,3.87l3.55-6.23c8.91,9.71,7.56,34.25,6.86,42.14a10.79,10.79,0,0,1-5.14,8.56c-0.3.17-.61,0.33-0.93,0.47l-0.07,0h0a15.37,15.37,0,0,1-20.84-10.4,9.08,9.08,0,0,0-11.47-6.53,15.37,15.37,0,0,1-19.58-12.6v-0.08c0-.35-0.06-0.69-0.07-1a10.79,10.79,0,0,1,4.74-8.8h0ZM99.67,742.38c8.59-2.59,15.85-2.25,22.85,1h0c7.15,3.4,24.38,5.58,38.78-10.4h0a3.91,3.91,0,0,0-5.81-5.23c-9.76,10.84-20,10.87-25.53,9.79L179.84,650a23.1,23.1,0,0,0,22.78,5.54,1.32,1.32,0,0,1,1.57.89,23.09,23.09,0,0,0,16.4,16.75L168.3,765a3.91,3.91,0,0,0,1.21,5.17,29.93,29.93,0,0,1,12.07,17.25,33.34,33.34,0,0,1-22.27,41.85,33.83,33.83,0,0,1-25.8-2.6,31.57,31.57,0,0,1-12.1-42.83,3.91,3.91,0,0,0-6.79-3.87,38.55,38.55,0,0,0-3.94,28.09,33.83,33.83,0,0,1-33.27-23.86,33.34,33.34,0,0,1,22.27-41.85h0Z"/><path class="cls-2" d="M256.13,343.12c-10.42-24-34.33-45.67-62.4-56.59a4.23,4.23,0,0,0-3.07,7.88c26,10.14,48.15,30.09,57.71,52.08,13.14,30.24-2.66,53.29-20.1,68.15L201.91,354a4.23,4.23,0,0,0-7.76,3.37l37.2,85.58c-10.05-2.51-24-.86-38.31,5.34s-25,15.3-30,24.37l-37.2-85.59a4.23,4.23,0,0,0-7.76,3.37l26.36,60.66c-22.77,2.61-50.41-1.55-63.56-31.8-9.56-22-9.06-51.77,1.29-77.72a4.23,4.23,0,1,0-7.86-3.14c-11.16,28-11.62,60.25-1.2,84.23C85.49,451.18,112,464,147.9,459.12l13.16,30.28A45.72,45.72,0,0,0,244.92,453l-13.16-30.28c28.06-22.91,36.76-51,24.37-79.57h0ZM217.85,505.35a37.3,37.3,0,0,1-49-19.32c-3.12-7.17,7.45-21.26,27.59-30s37.64-6.86,40.76.31A37.3,37.3,0,0,1,217.85,505.35Z"/><path class="cls-4" d="M760.24,204.25L824.13,145l0.11-.13c5.11,1.22,9.63.7,12.86-2.3,36.15-33.55,16.5-60.35,9.62-67.77s-32.15-29-68.29,4.54c-3.23,3-4.09,7.47-3.26,12.65l-0.13.1-63.91,59.31a49.37,49.37,0,1,0-39.15,86,49.35,49.35,0,1,0,88.26-33.13h0Zm75.5-126.12-10.17,9.44a5,5,0,1,0,6.8,7.33l10.17-9.44c10.7,14.87,6.49,32.35-12.24,49.74-2,1.82-14.67-2.23-29.3-18s-17.73-28.74-15.77-30.57c18.74-17.39,36.48-20.28,50.51-8.5h0ZM692.38,261.26a39.42,39.42,0,0,1,2.07-55.64,5,5,0,1,0-6.8-7.33,49.11,49.11,0,0,0-15.22,29,39.36,39.36,0,1,1,34.94-65.66,5,5,0,0,0,7.07.26l64.15-59.53A88.9,88.9,0,0,0,793.67,124a88.9,88.9,0,0,0,20.42,16.65l-64.15,59.53a5,5,0,0,0-.26,7.07c0.07,0.08.16,0.14,0.24,0.21s0.12,0.17.19,0.25a39.37,39.37,0,0,1-57.72,53.56h0Z"/><path class="cls-2" d="M559,399.08a18.78,18.78,0,0,1-21.44-2.6l-44.4-40.08h0a18.77,18.77,0,0,1-1.36-26.48l1.64-1.81a48.66,48.66,0,0,1,72.25,65.21L564,395.13A18.8,18.8,0,0,1,559,399.08Zm-62.12-46.8,44.41,40.08a13.21,13.21,0,0,0,18.64-1l1.64-1.82a43.1,43.1,0,1,0-64-57.76l-1.63,1.81a13.21,13.21,0,0,0,1,18.64h0Z"/><path class="cls-2" d="M547.2,345.06a2.78,2.78,0,0,1-3.37-4.31l14.41-16a2.78,2.78,0,0,1,4.12,3.72l-14.41,16A2.79,2.79,0,0,1,547.2,345.06Z"/><path class="cls-2" d="M436.91,549a63.89,63.89,0,0,1-29.07,7.6,2.79,2.79,0,0,1-2.51-1.47l-50-93.35a2.78,2.78,0,0,1,1.14-3.76c68.52-36.72,100-56.53,136.36-105.33a2.78,2.78,0,1,1,4.46,3.32C460.68,405.11,429.1,425.29,361.5,461.6L409.41,551a59,59,0,0,0,54.1-73.92,2.78,2.78,0,0,1,5.37-1.42A64.36,64.36,0,0,1,436.91,549Z"/><path class="cls-2" d="M447,491.59a2.78,2.78,0,0,1-2.72-4.84c47.34-27.82,78.92-57.6,96.52-91a2.78,2.78,0,0,1,4.91,2.59c-18.1,34.39-50.36,64.89-98.62,93.25Z"/><path class="cls-2" d="M512.81,147.88a47.24,47.24,0,0,1-4.24-3.23,2.78,2.78,0,0,1,3.62-4.22,41.26,41.26,0,0,0,3.73,2.85,40.51,40.51,0,1,0,8-71.29,2.89,2.89,0,0,1-3.79-2.56A40.49,40.49,0,1,0,461,105.81a2.78,2.78,0,1,1-2.56,4.93,46.61,46.61,0,0,1-4.58-2.73,46.07,46.07,0,1,1,71.65-42.43A46.06,46.06,0,1,1,512.81,147.88Z"/><path class="cls-2" d="M455.25,224.1l-50.7-34.27a2.78,2.78,0,0,1-.75-3.86l64.87-96a2.78,2.78,0,1,1,4.6,3.11L410,186.78l46.09,31.16,63.32-93.66a2.78,2.78,0,0,1,4.6,3.11l-64.87,96A2.78,2.78,0,0,1,455.25,224.1Z"/><path class="cls-2" d="M394.91,258.73A47.42,47.42,0,0,1,382.19,193l1.33-2a18.32,18.32,0,0,1,25.41-4.91l48.16,32.56A18.32,18.32,0,0,1,462,244l-1.33,2A47.42,47.42,0,0,1,394.91,258.73Zm10.92-68a12.76,12.76,0,0,0-17.7,3.42l-1.33,2a41.81,41.81,0,1,0,69.28,46.83l1.33-2a12.76,12.76,0,0,0-3.42-17.7Z"/><path class="cls-2" d="M394.91,258.73a2.78,2.78,0,0,1-.75-3.86l11.71-17.32a2.78,2.78,0,1,1,4.6,3.11L398.76,258A2.78,2.78,0,0,1,394.91,258.73Z"/><path class="cls-1" d="M819.42,615.39a19.72,19.72,0,0,1,7,4.13,20.23,20.23,0,0,1,5.57,9.85,57.8,57.8,0,0,1,1.47,17.1A58.65,58.65,0,0,1,830,663.62c-2.08,5.74-5.07,11.76-8.8,15s-8.16,3.6-13.72,2.17-12.22-4.69-18-8.35a74.06,74.06,0,0,1-14.32-11.68c-3.72-4-6.34-7.9-5.83-12.34s4.17-9.41,9.2-14.32a97.67,97.67,0,0,1,17.24-13.22c5.81-3.47,11-5.56,14.89-6.28a15,15,0,0,1,8.77.82h0Z"/><path class="cls-1" d="M686.24,789.53c6.13-2.76,12.26-5.53,19.8-9.73s16.5-9.84,24-14.67a185.5,185.5,0,0,0,20.16-14.52c6.74-5.68,14.25-13,20.79-19.7s12.12-12.7,17.36-18.91,10.13-12.61,13.87-17.73c1.43-2,2.69-3.75,3.85-5.41"/><path class="cls-1" d="M673.53,729a56.86,56.86,0,0,0,12.84-2,78.58,78.58,0,0,0,15.51-6.94,116.4,116.4,0,0,0,15.85-10.78c5.27-4.25,10.57-9.23,15.2-13.54s8.59-7.93,12.19-11.47,6.85-7,11.08-11.8c3.23-3.69,7-8.2,11-12.9"/><path class="cls-1" d="M673.52,729c-5.52.48-11,1-14.69,2.31s-5.42,3.57-7.37,6.82a69.19,69.19,0,0,0-5.9,12.64,107.82,107.82,0,0,0-4.23,16.85c-1,5.85-1.61,11.66-3,17.42s-3.63,11.5-5.38,18a101.4,101.4,0,0,0-3.42,20.6,69.89,69.89,0,0,0,1.39,18.76,23.87,23.87,0,0,0,6.66,12.47,32,32,0,0,0,15.89,8.59,43.35,43.35,0,0,0,22.64-1.67,33.91,33.91,0,0,0,16.54-12.29c3.42-5.08,4.34-10.63,4.06-17.74a113.92,113.92,0,0,0-3.69-23.1,152.43,152.43,0,0,0-6.75-19.13"/><path class="cls-1" d="M696.12,841c3.91,0.82,7.83,1.64,11.77,1.07a21,21,0,0,0,10.55-4.85,13.83,13.83,0,0,0,4.48-8.18,25.37,25.37,0,0,0-.37-9.82,48.25,48.25,0,0,0-3.79-10.65,49.79,49.79,0,0,0-7.52-11.49,169.55,169.55,0,0,0-13.33-13"/><path class="cls-1" d="M813.12,681.54a8.85,8.85,0,0,1,.3,1.7,1.9,1.9,0,0,1-.51,1.45,8.59,8.59,0,0,1-1.8,1.28c-0.64.38-1.18,0.67-2,1.14L806,688.86"/><path class="cls-1" d="M770.23,653.84a8.81,8.81,0,0,0-1.9.18,1.65,1.65,0,0,0-1.17.8,4.65,4.65,0,0,0,0,1.68c0.05,0.81,0,2,0,3.09"/><path class="cls-1" d="M767.16,659.59a59.94,59.94,0,0,0,3.93,6.32,52.69,52.69,0,0,0,4.81,5.39,51.65,51.65,0,0,0,5,4.59c1.8,1.41,3.85,2.69,5.85,4s4,2.55,5.89,3.7a39.59,39.59,0,0,0,6.11,3c2.23,0.86,4.78,1.55,7.33,2.25"/><path class="cls-1" d="M818.46,615a28.1,28.1,0,0,0-1.89,3.57,16.28,16.28,0,0,0-1.28,4.69,6.42,6.42,0,0,0,.74,3.82,2.76,2.76,0,0,0,2.48,1.46,7.69,7.69,0,0,0,3.45-1.39,9.27,9.27,0,0,0,2.93-2.76,23.11,23.11,0,0,0,2-4.51"/></svg>